<svg id="Capa_1" enable-background="new 0 0 513.001 513.001" height="512" viewBox="0 0 513.001 513.001" width="512" xmlns="http://www.w3.org/2000/svg"><g><g><g><path d="m400.791 60.105s-6.935 48.548-53.062 81.134c-6.306 4.455-14.851 4.206-21.028-.427-10.243-7.682-9.398-23.254 1.612-29.791 18.491-10.977 45.485-28.421 72.478-50.916z" fill="#00d2dc"/></g><g><path d="m272.532 84.154c101.826 0 184.371 82.546 184.371 184.371v184.371h-184.371c-101.825 0-184.371-82.546-184.371-184.371.001-101.826 82.546-184.371 184.371-184.371z" fill="#beebeb"/></g><g><circle cx="240.468" cy="260.509" fill="#0096d2" r="24.048"/></g><g><circle cx="252.492" cy="248.484" fill="#fff" r="12.024"/></g><g><circle cx="400.791" cy="260.509" fill="#0096d2" r="24.048"/></g><g><circle cx="412.815" cy="248.484" fill="#fff" r="12.024"/></g><g><path d="m400.609 140.322c33.009-19.395 71.575-20.656 104.392-6.996-4.039 35.317-23.911 68.394-56.919 87.789-17.44 10.247-36.432 15.432-55.308 16.028l-27.473-64.81c9.153-12.62 20.996-23.602 35.308-32.011z" fill="#beebeb"/></g><g><path d="m432.855 452.896h-48.097c-30.99 0-56.113-25.123-56.113-56.113 0-30.99 25.123-56.113 56.113-56.113h48.097c30.99 0 56.113 25.123 56.113 56.113 0 30.99-25.122 56.113-56.113 56.113z" fill="#00d2dc"/></g><path d="m152.291 268.525c0-47.888 18.361-91.391 48.318-124.135 3.45-.218 6.853-1.412 9.739-3.577 10.243-7.682 9.397-23.254-1.612-29.791-18.491-10.978-45.484-28.422-72.478-50.917 0 0 4.301 30.065 28.611 58.757-13.28 9.57-25.24 20.857-35.543 33.546-5.186-4.447-10.833-8.502-16.934-12.087-33.009-19.394-71.575-20.655-104.392-6.995 4.039 35.317 23.911 68.394 56.919 87.789 8.604 5.055 17.587 8.873 26.745 11.521-2.291 11.609-3.503 23.606-3.503 35.888 0 101.825 82.545 184.371 184.371 184.371h64.129c-101.825.001-184.37-82.545-184.37-184.37z" fill="#00d2dc"/></g><g fill="#283c64"><path d="m240.468 244.46c4.418 0 8-3.582 8-8s-3.582-8-8-8c-17.671 0-32.048 14.377-32.048 32.049 0 17.671 14.377 32.048 32.048 32.048s32.048-14.377 32.048-32.048c0-4.418-3.582-8-8-8s-8 3.582-8 8c0 8.849-7.199 16.048-16.048 16.048s-16.048-7.199-16.048-16.048 7.199-16.049 16.048-16.049z"/><path d="m400.791 244.46c4.418 0 8-3.582 8-8s-3.582-8-8-8c-17.672 0-32.049 14.377-32.049 32.049 0 17.671 14.377 32.048 32.049 32.048 17.671 0 32.048-14.377 32.048-32.048 0-4.418-3.582-8-8-8s-8 3.582-8 8c0 8.849-7.199 16.048-16.048 16.048s-16.049-7.199-16.049-16.048 7.2-16.049 16.049-16.049z"/><path d="m371.085 394.423c1.562 1.562 3.609 2.343 5.657 2.343s4.095-.781 5.657-2.343c3.125-3.124 3.125-8.189 0-11.313l-8.016-8.016c-3.124-3.124-8.189-3.124-11.313 0-3.125 3.124-3.125 8.189 0 11.313z"/><path d="m448.888 396.767c2.047 0 4.095-.781 5.657-2.343l8.016-8.016c3.125-3.124 3.125-8.189 0-11.313-3.124-3.124-8.189-3.124-11.313 0l-8.016 8.016c-3.125 3.124-3.125 8.189 0 11.313 1.561 1.561 3.608 2.343 5.656 2.343z"/><path d="m512.949 134.236c.405-3.542-1.583-6.925-4.874-8.295-33.535-13.96-70.997-12.817-103.261 3.042-5.819-5.519-11.986-10.673-18.456-15.438 18.491-26.531 22.196-51.204 22.353-52.308.468-3.277-1.13-6.504-4.021-8.117-2.891-1.614-6.477-1.279-9.02.84-15.207 12.672-31.979 25.006-49.864 36.708-22.596-9.344-47.341-14.513-73.273-14.513-27.247 0-53.519 5.579-78.159 16.559-15.639-10.094-34.321-23.193-52.993-38.753-2.543-2.119-6.129-2.454-9.02-.84-2.891 1.613-4.489 4.84-4.021 8.117.22 1.542 4.338 28.479 25.127 56.206-9.097 7.178-17.536 15.164-25.206 23.855-3.766-2.825-7.702-5.457-11.816-7.874-34.127-20.051-74.774-22.78-111.519-7.483-3.292 1.37-5.279 4.753-4.874 8.295 4.522 39.544 26.689 73.725 60.815 93.777 6.907 4.059 14.184 7.425 21.701 10.077-1.591 10.02-2.406 20.231-2.406 30.435 0 106.074 86.297 192.371 192.371 192.371h160.323c35.352 0 64.113-28.761 64.113-64.113s-28.761-64.113-64.113-64.113h-48.097c-35.352 0-64.113 28.761-64.113 64.113 0 8.03 1.497 15.712 4.205 22.802-8.371-2.026-16.044-5.858-22.613-12.427-3.124-3.124-8.189-3.124-11.313 0-3.125 3.124-3.125 8.189 0 11.313 12.84 12.84 28.15 17.767 44.18 18.815 2.235 2.735 4.697 5.275 7.347 7.608h-69.919c-97.251 0-176.371-79.12-176.371-176.371 0-8.735.652-17.472 1.923-26.065 7.197 1.536 14.524 2.448 21.89 2.681.086.002.172.004.257.004 4.301 0 7.854-3.417 7.992-7.747.14-4.416-3.327-8.109-7.743-8.249-18.043-.57-35.854-5.733-51.507-14.93-27.988-16.445-46.75-43.803-52.161-75.714 30.508-10.803 63.539-7.73 91.527 8.715 13.025 7.653 24.089 17.684 32.885 29.812 2.593 3.576 7.595 4.373 11.173 1.779 3.577-2.594 4.374-7.596 1.779-11.173-4.154-5.728-8.754-11.04-13.762-15.928 7.11-8.035 14.933-15.416 23.372-22.035 5.95 6.28 12.868 12.413 20.918 18.1 4.438 3.135 9.602 4.696 14.779 4.696 5.492 0 10.999-1.758 15.664-5.257 6.95-5.212 10.82-13.493 10.353-22.151-.467-8.662-5.207-16.481-12.68-20.918-.548-.326-1.131-.677-1.696-1.015 19.571-7.288 40.166-10.974 61.409-10.974 97.251 0 176.371 79.12 176.371 176.371v44.589c0 4.418 3.582 8 8 8s8-3.582 8-8v-44.589c0-15.571-1.873-30.71-5.382-45.218 29.875-20.463 49.261-52.658 53.426-89.072zm-128.191 214.434h48.097c26.529 0 48.113 21.583 48.113 48.113 0 8.187-2.061 15.899-5.682 22.655-4.971-.649-9.625-1.456-14.49-2.303-12.15-2.116-24.714-4.304-43.973-4.304-11.065 0-23.002 2.032-35.639 4.183-12.685 2.159-25.558 4.349-37.694 4.471-4.342-7.226-6.845-15.677-6.845-24.703 0-26.529 21.584-48.112 48.113-48.112zm-26.93 87.963c8.801-.912 17.573-2.405 26.041-3.846 11.952-2.035 23.241-3.956 32.954-3.956 17.876 0 29.748 2.067 41.229 4.066 1.796.313 3.614.628 5.459.938-8.33 6.904-19.016 11.061-30.656 11.061h-48.097c-9.97 0-19.24-3.05-26.93-8.263zm-152.281-302.22c-3.434 2.576-8.208 2.696-11.611.292-22.847-16.14-35.484-36.646-42.3-52.251 20.294 15.239 39.278 27.292 53.016 35.447 2.915 1.73 4.69 4.654 4.872 8.022.181 3.364-1.268 6.458-3.977 8.49zm179.977-52.038c-2.925 6.727-6.964 14.379-12.445 22.212-3.392-2.088-6.855-4.071-10.382-5.95 7.843-5.314 15.476-10.738 22.827-16.262zm69.286 124.612c-8.301-24.522-21.429-46.833-38.235-65.819 25.164-10.911 53.507-11.876 79.611-2.662-4.679 27.49-19.406 51.8-41.376 68.481z"/></g></g></svg>